<?xml version="1.0" standalone="no"?>
<!DOCTYPE svg PUBLIC "-//W3C//DTD SVG 20010904//EN"
 "http://www.w3.org/TR/2001/REC-SVG-20010904/DTD/svg10.dtd">
<svg version="1.0" xmlns="http://www.w3.org/2000/svg"
 width="1280.000000pt" height="1004.000000pt" viewBox="0 0 1280.000000 1004.000000"
 preserveAspectRatio="xMidYMid meet">
<metadata>
Created by potrace 1.15, written by Peter Selinger 2001-2017
</metadata>
<g transform="translate(0.000000,1004.000000) scale(0.100000,-0.100000)"
fill="#000000" stroke="none">
<path d="M4780 10025 c-139 -20 -270 -58 -350 -102 -84 -47 -206 -169 -248
-249 -58 -112 -61 -143 -57 -619 3 -458 12 -588 60 -873 44 -258 117 -502 229
-762 43 -101 44 -106 28 -130 -9 -14 -29 -46 -45 -72 -29 -47 -42 -54 -821
-474 -435 -235 -807 -438 -827 -450 -28 -18 -39 -33 -51 -76 -9 -29 -42 -141
-73 -248 -142 -483 -186 -754 -207 -1270 l-11 -285 -117 -235 c-212 -425 -265
-576 -243 -682 10 -49 8 -56 -26 -132 -56 -124 -73 -153 -156 -266 -42 -58
-89 -125 -103 -149 -57 -97 -91 -233 -112 -440 -10 -99 -13 -109 -53 -169 -23
-36 -45 -69 -48 -75 -4 -6 -37 3 -84 22 -122 51 -199 62 -393 54 -237 -8 -276
-2 -727 117 -87 23 -144 33 -208 34 -85 1 -89 0 -113 -27 -13 -15 -24 -40 -24
-55 0 -44 46 -129 95 -177 78 -75 168 -109 399 -150 131 -24 156 -41 156 -108
-1 -41 -2 -43 -82 -97 -218 -147 -398 -293 -450 -364 -46 -64 -35 -126 27
-152 55 -23 108 -17 179 18 l65 32 82 -39 c76 -36 90 -39 164 -38 54 1 119 12
200 33 89 23 158 33 270 40 254 16 405 31 521 50 183 31 241 58 333 151 62 63
35 64 384 -27 l248 -65 37 22 c83 50 175 126 207 174 47 69 60 111 84 272 36
246 57 301 221 588 62 109 135 247 161 307 46 104 145 382 169 477 6 23 13 41
15 39 6 -5 -21 -549 -35 -728 -6 -74 -24 -254 -41 -400 -16 -146 -33 -317 -36
-382 -15 -284 60 -391 296 -420 l88 -11 -239 -719 c-132 -396 -238 -721 -237
-723 2 -2 1119 -7 2481 -11 l2477 -7 -5 59 c-26 303 -66 439 -224 749 -53 105
-152 286 -220 404 l-123 215 64 55 c110 94 273 265 308 324 63 107 84 173 89
285 8 175 -21 299 -163 686 -124 341 -157 505 -137 690 12 106 42 256 52 256
3 0 53 -71 110 -157 256 -389 432 -582 621 -683 107 -57 254 -96 470 -125 38
-5 60 -18 128 -75 45 -39 85 -70 88 -70 2 0 102 55 221 121 l217 121 425 342
c234 187 514 412 623 500 109 87 199 157 201 155 2 -2 9 -105 16 -229 6 -124
15 -228 18 -231 8 -8 914 119 924 129 3 4 -11 95 -33 202 -22 107 -57 294 -79
415 -22 121 -43 230 -45 242 -4 19 3 27 47 49 121 60 152 108 122 183 -9 23
-30 53 -47 67 -32 27 -31 27 -132 12 -16 -2 -21 3 -23 29 -3 30 2 35 100 102
57 38 126 89 154 113 54 45 104 111 104 138 0 35 -40 78 -104 111 l-66 34 6
72 c4 39 3 88 0 108 -9 47 -71 114 -149 163 l-60 37 49 40 c27 21 79 70 117
107 58 58 67 72 67 103 0 33 -4 38 -47 57 -25 11 -63 23 -85 25 -21 3 -38 8
-38 11 0 2 19 40 42 84 55 102 151 230 309 410 249 284 333 400 424 590 283
594 300 1410 41 1929 -190 381 -600 665 -1112 773 -198 41 -295 49 -531 43
-183 -4 -238 -9 -339 -31 -455 -97 -807 -353 -999 -727 -137 -266 -198 -531
-249 -1070 -8 -86 -16 -163 -18 -170 -4 -18 88 -25 487 -34 171 -4 328 -11
350 -15 22 -5 41 -7 43 -5 2 2 10 74 18 162 25 279 64 446 140 593 108 210
286 349 535 417 45 12 99 17 184 17 102 0 132 -5 201 -27 231 -76 437 -308
509 -572 25 -94 31 -275 11 -371 -42 -207 -125 -358 -451 -819 -249 -352 -338
-508 -406 -716 -57 -175 -99 -443 -99 -643 0 -46 -3 -57 -14 -53 -88 34 -141
32 -155 -6 -5 -12 -16 -71 -25 -130 -18 -127 -58 -235 -153 -416 -53 -101 -71
-148 -94 -245 -60 -251 -73 -383 -45 -451 l14 -34 -151 -83 c-283 -155 -356
-188 -429 -195 -106 -9 -238 24 -438 111 l-85 38 -95 166 c-118 206 -148 248
-291 397 l-115 120 17 60 c49 169 3 296 -175 492 -57 62 -57 62 -50 111 10 80
-19 201 -80 327 -64 133 -165 294 -347 555 l-136 195 -784 314 -784 313 -49
101 c-78 162 -153 227 -366 318 l-85 36 -3 45 -3 45 40 7 c113 18 184 174 211
466 22 228 -14 311 -126 294 l-44 -6 0 163 c-1 455 -105 824 -281 1001 -85 85
-192 139 -345 173 -207 46 -479 63 -644 40z"/>
</g>
</svg>
